<svg width="50" height="50" viewBox="0 0 50 50" fill="none" xmlns="http://www.w3.org/2000/svg">
<circle cx="25" cy="25" r="23.5" fill="#CCCCCC" fill-opacity="0.05" stroke="#4CAF50" stroke-width="3"/>
<path d="M39.79 26.3638L35.725 19.3037C35.4632 18.8273 35.0874 18.4312 34.6348 18.1548C34.1821 17.8783 33.6685 17.7311 33.145 17.7278H29.5V14.5759C29.5 14.158 29.342 13.7571 29.0607 13.4616C28.7794 13.166 28.3978 13 28 13H13C12.2044 13 11.4413 13.3321 10.8787 13.9232C10.3161 14.5142 10 15.3159 10 16.1518V31.9111C10.0005 32.4638 10.1394 33.0066 10.4027 33.4852C10.666 33.9637 11.0444 34.3611 11.5 34.6374C11.4463 36.1003 11.9479 37.5256 12.8945 38.5999C13.8411 39.6742 15.1551 40.3095 16.5475 40.3659C17.9399 40.4223 19.2966 39.8953 20.3191 38.9008C21.3417 37.9063 21.9463 36.5258 22 35.0629H26.65C26.8159 36.3815 27.4322 37.5918 28.3842 38.4685C29.3362 39.3452 30.559 39.8286 31.825 39.8286C33.091 39.8286 34.3138 39.3452 35.2658 38.4685C36.2178 37.5918 36.8341 36.3815 37 35.0629C37.7956 35.0629 38.5587 34.7308 39.1213 34.1398C39.6839 33.5487 40 32.747 40 31.9111V27.1833C39.9976 26.8958 39.9254 26.6137 39.79 26.3638ZM16.75 36.6388C16.305 36.6388 15.87 36.5002 15.5 36.2405C15.13 35.9807 14.8416 35.6115 14.6713 35.1796C14.501 34.7476 14.4564 34.2723 14.5432 33.8138C14.63 33.3552 14.8443 32.934 15.159 32.6034C15.4737 32.2728 15.8746 32.0477 16.311 31.9565C16.7475 31.8653 17.1999 31.9121 17.611 32.091C18.0222 32.2699 18.3736 32.5729 18.6208 32.9617C18.868 33.3504 19 33.8074 19 34.275C19 34.9019 18.7629 35.5032 18.341 35.9465C17.919 36.3898 17.3467 36.6388 16.75 36.6388ZM25 24.0315H22V27.1833H19V24.0315H16V20.8796H19V17.7278H22V20.8796H25V24.0315ZM31.75 36.6388C31.305 36.6388 30.87 36.5002 30.5 36.2405C30.13 35.9807 29.8416 35.6115 29.6713 35.1796C29.501 34.7476 29.4564 34.2723 29.5432 33.8138C29.6301 33.3552 29.8443 32.934 30.159 32.6034C30.4737 32.2728 30.8746 32.0477 31.311 31.9565C31.7475 31.8653 32.1999 31.9121 32.611 32.091C33.0222 32.2699 33.3736 32.5729 33.6208 32.9617C33.868 33.3504 34 33.8074 34 34.275C34 34.9019 33.7629 35.5032 33.341 35.9465C32.919 36.3898 32.3467 36.6388 31.75 36.6388ZM29.5 25.6074V20.8796H33.145L35.845 25.6074H29.5Z" fill="black"/>
</svg>
