<svg width="50" height="50" viewBox="0 0 50 50" fill="none" xmlns="http://www.w3.org/2000/svg">
<circle cx="25" cy="25" r="25" fill="#CCCCCC" fill-opacity="0.05"/>
<circle cx="25" cy="25" r="23.5" stroke="black" stroke-opacity="0.51" stroke-width="3"/>
<path d="M25 10C16.7148 10 10 16.7148 10 25C10 33.2852 16.7148 40 25 40C33.2852 40 40 33.2852 40 25C40 16.7148 33.2852 10 25 10ZM31.5625 32.0312C31.5625 32.2891 31.3516 32.5 31.0938 32.5H28.2812C28.0234 32.5 27.8125 32.2891 27.8125 32.0312V26.875H22.1875V32.0312C22.1875 32.2891 21.9766 32.5 21.7188 32.5H18.9062C18.6484 32.5 18.4375 32.2891 18.4375 32.0312V17.9688C18.4375 17.7109 18.6484 17.5 18.9062 17.5H21.7188C21.9766 17.5 22.1875 17.7109 22.1875 17.9688V23.125H27.8125V17.9688C27.8125 17.7109 28.0234 17.5 28.2812 17.5H31.0938C31.3516 17.5 31.5625 17.7109 31.5625 17.9688V32.0312Z" fill="black"/>
</svg>
