<svg width="50" height="50" viewBox="0 0 50 50" fill="none" xmlns="http://www.w3.org/2000/svg">
<circle cx="25" cy="25" r="23.5" fill="#CCCCCC" fill-opacity="0.05" stroke="#4CAF50" stroke-width="3"/>
<path d="M34.6061 14.3931C28.7486 8.53562 19.2506 8.53562 13.3931 14.3931C7.53562 20.2506 7.53562 29.7486 13.3931 35.6061C19.2506 41.4646 28.7486 41.4646 34.6061 35.6061C40.4646 29.7486 40.4646 20.2506 34.6061 14.3931ZM21.5936 29.9996H15.4996V27.4771H21.5486C21.6426 27.4606 21.8981 27.3676 22.0661 26.8406L22.1861 26.5006L22.7056 27.9731C22.8568 28.4471 23.0793 28.8953 23.3656 29.3021C22.7476 29.8246 22.0531 29.9996 21.5936 29.9996ZM29.3101 31.9996V30.0356H26.5061C25.7246 30.0356 24.2611 29.5366 23.6576 27.6656L22.8716 25.4411L22.0661 23.1591C21.8981 22.6316 21.6421 22.5391 21.5486 22.5226H15.4996V20.0001H21.5936C22.3756 20.0001 23.8386 20.4991 24.4431 22.3701L25.2291 24.5946L26.0346 26.8766C26.2016 27.4031 26.4576 27.4966 26.5521 27.5131H29.3101V25.5686L32.4996 28.7846L29.3101 31.9996ZM29.3101 24.4301V22.4866H26.5521C26.4576 22.5031 26.2016 22.5971 26.0346 23.1231L25.9016 23.4991L25.3936 22.0626C25.2383 21.5705 25.0059 21.106 24.7051 20.6866C25.3301 20.1446 26.0391 19.9641 26.5061 19.9641H29.3101V17.9991L32.4996 21.2151L29.3101 24.4301Z" fill="black"/>
</svg>
