<svg width="25" height="25" viewBox="0 0 25 25" fill="none" xmlns="http://www.w3.org/2000/svg">
<path d="M8.49843 2.49799C5.41123 2.49799 2.89999 5.01155 2.89999 8.09955V16.0995C2.89999 19.1867 5.41356 21.698 8.50156 21.698H16.5016C19.5888 21.698 22.1 19.1844 22.1 16.0964V8.09642C22.1 5.00922 19.5864 2.49799 16.4984 2.49799H8.49843ZM18.1 5.69799C18.5416 5.69799 18.9 6.05639 18.9 6.49799C18.9 6.93959 18.5416 7.29799 18.1 7.29799C17.6584 7.29799 17.3 6.93959 17.3 6.49799C17.3 6.05639 17.6584 5.69799 18.1 5.69799ZM12.5 7.29799C15.1472 7.29799 17.3 9.45079 17.3 12.098C17.3 14.7452 15.1472 16.898 12.5 16.898C9.85279 16.898 7.69999 14.7452 7.69999 12.098C7.69999 9.45079 9.85279 7.29799 12.5 7.29799ZM12.5 8.89799C11.6513 8.89799 10.8374 9.23513 10.2373 9.83524C9.63714 10.4354 9.29999 11.2493 9.29999 12.098C9.29999 12.9467 9.63714 13.7606 10.2373 14.3607C10.8374 14.9608 11.6513 15.298 12.5 15.298C13.3487 15.298 14.1626 14.9608 14.7627 14.3607C15.3629 13.7606 15.7 12.9467 15.7 12.098C15.7 11.2493 15.3629 10.4354 14.7627 9.83524C14.1626 9.23513 13.3487 8.89799 12.5 8.89799Z" fill="#333333"/>
</svg>
