<svg width="21" height="20" viewBox="0 0 21 20" fill="none" xmlns="http://www.w3.org/2000/svg">
<path d="M20.041 14.7674V5.23256C20.041 2.3427 17.6936 0 14.7978 0L5.24361 0C2.34788 0 0.000432968 2.3427 0.000432968 5.23256V14.7674C0.000432968 17.6573 2.34788 20 5.24361 20H14.7978C17.6936 20 20.041 17.6573 20.041 14.7674Z" fill="#111827"/>
<path d="M5.81875 8.13957H7.75838V14.3639H5.81875V8.13957ZM6.792 5.04791C7.41569 5.04791 7.91602 5.54723 7.91602 6.16966C7.91602 6.7921 7.41569 7.29141 6.792 7.29141C6.1683 7.29141 5.66797 6.78526 5.66797 6.16966C5.66797 5.55407 6.1683 5.04791 6.792 5.04791Z" fill="white"/>
<path d="M8.97951 8.1395H10.8369V8.98765H10.8643C11.1248 8.49517 11.7553 7.98218 12.7011 7.98218C14.6613 7.98218 15.0246 9.26809 15.0246 10.9439V14.357H13.085V11.3338C13.085 10.6087 13.0712 9.68532 12.0774 9.68532C11.0836 9.68532 10.9123 10.4719 10.9123 11.2859V14.3638H8.97266V8.1395H8.97951Z" fill="white"/>
</svg>
